# xmcd
#
# Track frame offsets: 
#        150
#        28901
#        51867
#        85327
#        107067
#        139717
#        163561
#
# Disc length: 2431 seconds
#
# Revision: 0
# Processed by: cddbd v1.5.2PL0 Copyright (c) Steve Scherf et al.
# Submitted via: ExactAudioCopy v0.99pb5
#
DISCID=58097d07
DTITLE=Hawkwind  - Levitation, Disc 3
DYEAR=1900
DGENRE=
TTITLE0=Running Through My Back Brain (Messages)
TTITLE1=Dangerous Vision
TTITLE2=Who's Gonna Win the War
TTITLE3=Psi Power
TTITLE4=Shot Down in the Night
TTITLE5=World of Tiers
TTITLE6=Space Chase
EXTD=
EXTT0=
EXTT1=
EXTT2=
EXTT3=
EXTT4=
EXTT5=
EXTT6=
PLAYORDER=
